<svg xmlns="http://www.w3.org/2000/svg">
  <defs>
    <symbol viewBox="0 0 18 18" id="vjs-icon-play">
      <path d="M15.25 8.567a.5.5 0 0 1 0 .866l-10.5 6.062a.5.5 0 0 1-.75-.433V2.938a.5.5 0 0 1 .75-.433l10.5 6.062Z"/>
    </symbol>
    <symbol viewBox="0 0 18 18" id="vjs-icon-pause">
      <path d="M3 3h4v12H3zM11 3h4v12h-4z"/>
    </symbol>
    <symbol viewBox="0 0 18 18" id="vjs-icon-audio">
      <path d="M9 .75a7.698 7.698 0 0 0-7.697 7.697v5.987A2.568 2.568 0 0 0 3.868 17h2.566v-6.842h-3.42v-1.71a5.988 5.988 0 0 1 11.973 0v1.71h-3.421V17h2.566a2.568 2.568 0 0 0 2.565-2.566V8.447A7.698 7.698 0 0 0 9 .75Z"/>
    </symbol>
    <symbol viewBox="0 0 24 24" id="vjs-icon-captions">
      <path fill-rule="evenodd" d="M1 0a1 1 0 0 0-1 1v16a1 1 0 0 0 1 1h22a1 1 0 0 0 1-1V1a1 1 0 0 0-1-1H1Zm21 2H2v14h20V2Z" clip-rule="evenodd"/>
      <path d="M9.453 12.61c-.774 0-1.438-.15-1.994-.447a3.092 3.092 0 0 1-1.28-1.26c-.29-.542-.436-1.177-.436-1.905A4.2 4.2 0 0 1 5.99 7.52c.172-.443.417-.823.734-1.14a3.21 3.21 0 0 1 1.17-.725 4.447 4.447 0 0 1 1.558-.258c.304 0 .618.037.942.11.331.066.622.168.873.307.185.1.314.225.387.377a.765.765 0 0 1 .07.466.893.893 0 0 1-.169.427.697.697 0 0 1-.357.258c-.146.04-.304.016-.476-.07a3.04 3.04 0 0 0-.596-.208 2.265 2.265 0 0 0-.605-.08c-.41 0-.754.08-1.031.239a1.455 1.455 0 0 0-.615.674c-.14.298-.209.665-.209 1.101 0 .437.07.807.209 1.111.139.298.344.526.615.685.277.152.621.228 1.031.228.172 0 .358-.02.556-.06.198-.046.393-.115.585-.208.199-.086.374-.109.526-.07.159.04.284.12.377.239.1.119.162.258.188.416a.742.742 0 0 1-.069.457.766.766 0 0 1-.357.367c-.232.139-.52.248-.863.327-.338.08-.675.12-1.012.12ZM16.05 12.61c-.774 0-1.438-.15-1.994-.447a3.092 3.092 0 0 1-1.28-1.26c-.29-.542-.436-1.177-.436-1.905 0-.542.083-1.035.248-1.478.172-.443.417-.823.734-1.14a3.21 3.21 0 0 1 1.17-.725 4.447 4.447 0 0 1 1.558-.258c.304 0 .619.037.943.11.33.066.621.168.873.307.185.1.314.225.386.377a.766.766 0 0 1 .07.466.893.893 0 0 1-.169.427.697.697 0 0 1-.357.258c-.145.04-.304.016-.476-.07a3.04 3.04 0 0 0-.595-.208 2.266 2.266 0 0 0-.605-.08c-.41 0-.754.08-1.032.239a1.456 1.456 0 0 0-.615.674c-.139.298-.208.665-.208 1.101 0 .437.069.807.208 1.111.139.298.344.526.615.685.278.152.622.228 1.032.228.171 0 .357-.02.555-.06.198-.046.394-.115.585-.208.199-.086.374-.109.526-.07.159.04.284.12.377.239.1.119.162.258.189.416a.742.742 0 0 1-.07.457.766.766 0 0 1-.357.367c-.231.139-.52.248-.863.327-.337.08-.675.12-1.012.12Z"/>
    </symbol>
    <symbol viewBox="0 0 24 24" id="vjs-icon-subtitles">
      <path d="M23 18H1a1 1 0 0 1-1-1V1a1 1 0 0 1 1-1h22a1 1 0 0 1 1 1v16a1 1 0 0 1-1 1zm-1-2V2H2v14h20z"/>
      <path d="M4 12h16v2H4z"/>
    </symbol>
    <symbol viewBox="0 0 24 24" id="vjs-icon-fullscreen-enter">
      <path d="M22 12v4H2V2h10V0H1a1 1 0 0 0-1 1v16a1 1 0 0 0 1 1h22a1 1 0 0 0 1-1v-5h-2z"/>
      <path d="M15 0v2h5.59L15 7.59 16.41 9 22 3.41V9h2V0h-9"/>
    </symbol>
    <symbol viewBox="0 0 24 24" id="vjs-icon-fullscreen-exit">
      <path d="M22 12v4H2V2h10V0H1a1 1 0 0 0-1 1v16a1 1 0 0 0 1 1h22a1 1 0 0 0 1-1v-5h-2z"/>
      <path d="M24 9V7h-5.59L24 1.41 22.59 0 17 5.59V0h-2v9h9"/>
    </symbol>
    <symbol viewBox="0 0 18 18" id="vjs-icon-play-circle">
      <path fill-rule="evenodd" d="M9 18A9 9 0 1 0 9 0a9 9 0 0 0 0 18Zm0-2A7 7 0 1 0 9 2a7 7 0 0 0 0 14Z" clip-rule="evenodd"/>
      <path d="M7 5.982v6.036a.5.5 0 0 0 .794.404l4.15-3.018a.5.5 0 0 0 0-.808l-4.15-3.018A.5.5 0 0 0 7 5.982Z"/>
    </symbol>
    <symbol viewBox="0 0 24 24" id="vjs-icon-volume-mute">
      <path d="M21 17h2v1h-2v-1ZM17 17h2v1h-2v-1ZM13 17h2v1h-2v-1ZM9 16h2v2H9v-2ZM5 14h2v4H5v-4ZM1 11h2v7H1v-7Z"/>
    </symbol>
    <symbol viewBox="0 0 24 24" id="vjs-icon-volume-low">
      <path d="M3 11H1v7h2v-7ZM7 14H5v4h2v-4ZM11 16H9v2h2v-2ZM15 16h-2v2h2v-2ZM19 14h-2v4h2v-4ZM23 11h-2v7h2v-7Z"/>
    </symbol>
    <symbol viewBox="0 0 24 24" id="vjs-icon-volume-medium">
      <path d="M3 11H1v7h2v-7ZM7 14H5v4h2v-4ZM11 14H9v4h2v-4ZM15 14h-2v4h2v-4ZM19 11h-2v7h2v-7ZM23 6h-2v12h2V6Z"/>
    </symbol>
    <symbol viewBox="0 0 24 24" id="vjs-icon-volume-high">
      <path d="M3 11H1v7h2v-7ZM7 14H5v4h2v-4ZM11 14H9v4h2v-4ZM15 11h-2v7h2v-7ZM19 6h-2v12h2V6ZM23 0h-2v18h2V0Z"/>
    </symbol>
    <symbol viewBox="0 0 18 18" id="vjs-icon-spinner">
      <path d="M6.66 7.65 10.948.22A8.947 8.947 0 0 0 9 0C6.84 0 4.864.76 3.312 2.03l3.299 5.71.049-.09ZM17.586 6.3A9.016 9.016 0 0 0 12.191.594L8.896 6.3h8.69Zm.234.9h-6.741l.261.45 4.289 7.425A8.967 8.967 0 0 0 18 9c0-.617-.063-1.22-.18-1.8ZM5.881 9l-3.51-6.075A8.967 8.967 0 0 0 0 9c0 .617.063 1.22.18 1.8h6.741L5.881 9ZM.414 11.7a9.016 9.016 0 0 0 5.396 5.706L9.104 11.7H.414Zm10.143 0-3.51 6.08a8.948 8.948 0 0 0 7.641-1.809L11.39 10.26l-.833 1.44Z"/>
    </symbol>
    <symbol viewBox="0 0 24 24" id="vjs-icon-hd">
      <path fill-rule="evenodd" d="M1 0a1 1 0 0 0-1 1v16a1 1 0 0 0 1 1h22a1 1 0 0 0 1-1V1a1 1 0 0 0-1-1H1Zm21 2H2v14h20V2Z" clip-rule="evenodd"/>
      <path d="M5.767 12.59c-.251 0-.443-.07-.576-.209-.132-.139-.198-.334-.198-.585V6.21c0-.252.066-.447.198-.586.133-.138.325-.208.576-.208.245 0 .433.07.565.208.133.14.199.334.199.586v2.103h3.253V6.21c0-.252.067-.447.199-.586.132-.138.32-.208.565-.208.252 0 .443.07.576.208.132.14.198.334.198.586v5.585c0 .251-.066.446-.198.585-.133.139-.324.208-.576.208-.244 0-.433-.07-.565-.208-.132-.139-.199-.334-.199-.585V9.593H6.531v2.203c0 .251-.066.446-.199.585-.125.139-.314.208-.565.208ZM13.537 12.5c-.258 0-.456-.07-.595-.208-.14-.14-.209-.338-.209-.595V6.31c0-.258.07-.456.209-.595.139-.14.337-.209.595-.209h1.934c1.197 0 2.12.305 2.768.913.655.602.982 1.462.982 2.58 0 .561-.086 1.06-.258 1.497-.165.43-.407.794-.724 1.091a3.203 3.203 0 0 1-1.17.685c-.463.152-.996.228-1.598.228h-1.934Zm.734-1.26h1.111c.377 0 .704-.046.982-.139.278-.092.51-.231.694-.416.186-.186.325-.417.417-.695.093-.284.139-.615.139-.992 0-.754-.189-1.312-.565-1.676-.37-.37-.926-.556-1.667-.556h-1.111v4.474Z"/>
    </symbol>
    <symbol viewBox="0 0 24 24" id="vjs-icon-chapters">
      <path d="M14 18h10v-7H14v7zm2-5h6v3h-6v-3zM0 7h10V0H0v7zm2-5h6v3H2V2zM0 18h10v-7H0v7zm2-5h6v3H2v-3zM14 0v7h10V0H14zm8 5h-6V2h6v3z"/>
    </symbol>
    <symbol viewBox="0 0 40 40" id="vjs-icon-downloading">
      <path d="M18.208 36.875q-3.208-.292-5.979-1.729-2.771-1.438-4.812-3.729-2.042-2.292-3.188-5.229-1.146-2.938-1.146-6.23 0-6.583 4.334-11.416 4.333-4.834 10.833-5.5v3.166q-5.167.75-8.583 4.646Q6.25 14.75 6.25 19.958q0 5.209 3.396 9.104 3.396 3.896 8.562 4.646zM20 28.417L11.542 20l2.083-2.083 4.917 4.916v-11.25h2.916v11.25l4.875-4.916L28.417 20zm1.792 8.458v-3.167q1.833-.25 3.541-.958 1.709-.708 3.167-1.875l2.333 2.292q-1.958 1.583-4.25 2.541-2.291.959-4.791 1.167zm6.791-27.792q-1.541-1.125-3.25-1.854-1.708-.729-3.541-1.021V3.042q2.5.25 4.77 1.208 2.271.958 4.271 2.5zm4.584 21.584l-2.25-2.25q1.166-1.5 1.854-3.209.687-1.708.937-3.541h3.209q-.292 2.5-1.229 4.791-.938 2.292-2.521 4.209zm.541-12.417q-.291-1.833-.958-3.562-.667-1.73-1.833-3.188l2.375-2.208q1.541 1.916 2.458 4.208.917 2.292 1.167 4.75z"></path>
    </symbol>
    <symbol viewBox="0 0 48 48" id="vjs-icon-file-download">
      <path d="M10.8 40.55q-1.35 0-2.375-1T7.4 37.15v-7.7h3.4v7.7h26.35v-7.7h3.4v7.7q0 1.4-1 2.4t-2.4 1zM24 32.1L13.9 22.05l2.45-2.45 5.95 5.95V7.15h3.4v18.4l5.95-5.95 2.45 2.45z"></path>
    </symbol>
    <symbol viewBox="0 0 48 48" id="vjs-icon-file-download-done">
      <path d="M9.8 40.5v-3.45h28.4v3.45zm9.2-9.05L7.4 19.85l2.45-2.35L19 26.65l19.2-19.2 2.4 2.4z"></path>
    </symbol>
    <symbol viewBox="0 0 48 48" id="vjs-icon-file-download-off">
      <path d="M4.9 4.75L43.25 43.1 41 45.3l-4.75-4.75q-.05.05-.075.025-.025-.025-.075-.025H10.8q-1.35 0-2.375-1T7.4 37.15v-7.7h3.4v7.7h22.05l-7-7-1.85 1.8L13.9 21.9l1.85-1.85L2.7 7zm26.75 14.7l2.45 2.45-3.75 3.8-2.45-2.5zM25.7 7.15V21.1l-3.4-3.45V7.15z"></path>
    </symbol>
    <symbol viewBox="0 0 48 48" id="vjs-icon-share">
      <path d="M36 32.17c-1.52 0-2.89.59-3.93 1.54L17.82 25.4c.11-.45.18-.92.18-1.4s-.07-.95-.18-1.4l14.1-8.23c1.07 1 2.5 1.62 4.08 1.62 3.31 0 6-2.69 6-6s-2.69-6-6-6-6 2.69-6 6c0 .48.07.95.18 1.4l-14.1 8.23c-1.07-1-2.5-1.62-4.08-1.62-3.31 0-6 2.69-6 6s2.69 6 6 6c1.58 0 3.01-.62 4.08-1.62l14.25 8.31c-.1.42-.16.86-.16 1.31A5.83 5.83 0 1 0 36 32.17z"></path>
    </symbol>
    <symbol viewBox="0 0 48 48" id="vjs-icon-cog">
      <path d="M38.86 25.95c.08-.64.14-1.29.14-1.95s-.06-1.31-.14-1.95l4.23-3.31c.38-.3.49-.84.24-1.28l-4-6.93c-.25-.43-.77-.61-1.22-.43l-4.98 2.01c-1.03-.79-2.16-1.46-3.38-1.97L29 4.84c-.09-.47-.5-.84-1-.84h-8c-.5 0-.91.37-.99.84l-.75 5.3a14.8 14.8 0 0 0-3.38 1.97L9.9 10.1a1 1 0 0 0-1.22.43l-4 6.93c-.25.43-.14.97.24 1.28l4.22 3.31C9.06 22.69 9 23.34 9 24s.06 1.31.14 1.95l-4.22 3.31c-.38.3-.49.84-.24 1.28l4 6.93c.25.43.77.61 1.22.43l4.98-2.01c1.03.79 2.16 1.46 3.38 1.97l.75 5.3c.08.47.49.84.99.84h8c.5 0 .91-.37.99-.84l.75-5.3a14.8 14.8 0 0 0 3.38-1.97l4.98 2.01a1 1 0 0 0 1.22-.43l4-6.93c.25-.43.14-.97-.24-1.28l-4.22-3.31zM24 31c-3.87 0-7-3.13-7-7s3.13-7 7-7 7 3.13 7 7-3.13 7-7 7z"></path>
    </symbol>
    <symbol viewBox="0 0 18 18" id="vjs-icon-square">
      <path fill-rule="evenodd" d="M1 0a1 1 0 0 0-1 1v16a1 1 0 0 0 1 1h16a1 1 0 0 0 1-1V1a1 1 0 0 0-1-1H1Zm15 2H2v14h14V2Z" clip-rule="evenodd"/>
    </symbol>
    <symbol viewBox="0 0 18 18" id="vjs-icon-circle">
      <circle cx="9" cy="9" r="9"></circle>
    </symbol>
    <symbol viewBox="0 0 18 18" id="vjs-icon-circle-outline">
      <path fill-rule="evenodd" d="M9 18A9 9 0 1 0 9 0a9 9 0 0 0 0 18Zm0-2A7 7 0 1 0 9 2a7 7 0 0 0 0 14Z" clip-rule="evenodd"/>
    </symbol>
    <symbol viewBox="0 0 18 18" id="vjs-icon-circle-inner-circle">
      <path fill-rule="evenodd" d="M9 18A9 9 0 1 0 9 0a9 9 0 0 0 0 18Zm0-2A7 7 0 1 0 9 2a7 7 0 0 0 0 14Z" clip-rule="evenodd"/>
      <circle cx="9" cy="9" r="3"/>
    </symbol>
    <symbol viewBox="0 0 18 18" id="vjs-icon-cancel">
      <path d="M1.927 14.657L14.655 1.929l1.414 1.414L3.341 16.071z"/>
      <path d="M14.657 16.073L1.929 3.345l1.414-1.414 12.728 12.728z"/>
    </symbol>
    <symbol viewBox="0 0 48 48" id="vjs-icon-replay">
      <path d="M24 10V2L14 12l10 10v-8c6.63 0 12 5.37 12 12s-5.37 12-12 12-12-5.37-12-12H8c0 8.84 7.16 16 16 16s16-7.16 16-16-7.16-16-16-16z"></path>
    </symbol>
    <symbol viewBox="0 0 48 48" id="vjs-icon-repeat">
      <path d="M14 14h20v6l8-8-8-8v6H10v12h4v-8zm20 20H14v-6l-8 8 8 8v-6h24V26h-4v8z"></path>
    </symbol>
    <symbol viewBox="0 96 48 48" id="vjs-icon-replay-5">
      <path d="M17.689 98l-8.697 8.696 8.697 8.697 2.486-2.485-4.32-4.319h1.302c4.93 0 9.071 1.722 12.424 5.165 3.352 3.443 5.029 7.638 5.029 12.584h3.55c0-2.958-.553-5.73-1.658-8.313-1.104-2.583-2.622-4.841-4.555-6.774-1.932-1.932-4.19-3.45-6.773-4.555-2.584-1.104-5.355-1.657-8.313-1.657H15.5l4.615-4.615zm-8.08 21.659v13.861h11.357v5.008H9.609V143h12.7c.834 0 1.55-.298 2.146-.894.596-.597.895-1.31.895-2.145v-7.781c0-.835-.299-1.55-.895-2.147a2.929 2.929 0 0 0-2.147-.894h-8.227v-5.096H25.35v-4.384z"></path>
    </symbol>
    <symbol viewBox="0 96 48 48" id="vjs-icon-replay-10">
      <path d="M42.315 125.63c0-4.997-1.694-9.235-5.08-12.713-3.388-3.479-7.571-5.218-12.552-5.218h-1.315l4.363 4.363-2.51 2.51-8.787-8.786L25.221 97l2.45 2.45-4.662 4.663h1.375c2.988 0 5.788.557 8.397 1.673 2.61 1.116 4.892 2.65 6.844 4.602 1.953 1.953 3.487 4.234 4.602 6.844 1.116 2.61 1.674 5.41 1.674 8.398zM8.183 142v-19.657H3.176V117.8h9.643V142zm13.63 0c-1.156 0-2.127-.393-2.912-1.178-.778-.778-1.168-1.746-1.168-2.902v-16.04c0-1.156.393-2.127 1.178-2.912.779-.779 1.746-1.168 2.902-1.168h7.696c1.156 0 2.126.392 2.911 1.177.779.78 1.168 1.747 1.168 2.903v16.04c0 1.156-.392 2.127-1.177 2.912-.779.779-1.746 1.168-2.902 1.168zm.556-4.636h6.583v-15.02H22.37z"></path>
    </symbol>
    <symbol viewBox="0 96 48 48" id="vjs-icon-replay-30">
      <path d="M26.047 97l-8.733 8.732 8.733 8.733 2.496-2.494-4.336-4.338h1.307c4.95 0 9.108 1.73 12.474 5.187 3.367 3.458 5.051 7.668 5.051 12.635h3.565c0-2.97-.556-5.751-1.665-8.346-1.109-2.594-2.633-4.862-4.574-6.802-1.94-1.941-4.208-3.466-6.803-4.575-2.594-1.109-5.375-1.664-8.345-1.664H23.85l4.634-4.634zM2.555 117.531v4.688h10.297v5.25H5.873v4.687h6.979v5.156H2.555V142H13.36c1.061 0 1.95-.395 2.668-1.186.718-.79 1.076-1.772 1.076-2.94v-16.218c0-1.168-.358-2.149-1.076-2.94-.717-.79-1.607-1.185-2.668-1.185zm22.482.14c-1.149 0-2.11.39-2.885 1.165-.78.78-1.172 1.744-1.172 2.893v15.943c0 1.149.388 2.11 1.163 2.885.78.78 1.745 1.172 2.894 1.172h7.649c1.148 0 2.11-.388 2.884-1.163.78-.78 1.17-1.745 1.17-2.894v-15.943c0-1.15-.386-2.111-1.16-2.885-.78-.78-1.746-1.172-2.894-1.172zm.553 4.518h6.545v14.93H25.59z"></path>
    </symbol>
    <symbol viewBox="0 96 48 48" id="vjs-icon-forward-5">
      <path d="M29.508 97l-2.431 2.43 4.625 4.625h-1.364c-2.965 0-5.742.554-8.332 1.66-2.589 1.107-4.851 2.629-6.788 4.566-1.937 1.937-3.458 4.2-4.565 6.788-1.107 2.59-1.66 5.367-1.66 8.331h3.557c0-4.957 1.68-9.16 5.04-12.611 3.36-3.45 7.51-5.177 12.451-5.177h1.304l-4.326 4.33 2.49 2.49 8.715-8.716zm-9.783 21.61v13.89h11.382v5.018H19.725V142h12.727a2.93 2.93 0 0 0 2.15-.896 2.93 2.93 0 0 0 .896-2.15v-7.798c0-.837-.299-1.554-.896-2.152a2.93 2.93 0 0 0-2.15-.896h-8.245V123h11.29v-4.392z"></path>
    </symbol>
    <symbol viewBox="0 96 48 48" id="vjs-icon-forward-10">
      <path d="M23.119 97l-2.386 2.383 4.538 4.538h-1.339c-2.908 0-5.633.543-8.173 1.63-2.54 1.085-4.76 2.577-6.66 4.478-1.9 1.9-3.392 4.12-4.478 6.66-1.085 2.54-1.629 5.264-1.629 8.172h3.49c0-4.863 1.648-8.986 4.944-12.372 3.297-3.385 7.368-5.078 12.216-5.078h1.279l-4.245 4.247 2.443 2.442 8.55-8.55zm-9.52 21.45v4.42h4.871V142h4.513v-23.55zm18.136 0c-1.125 0-2.066.377-2.824 1.135-.764.764-1.148 1.709-1.148 2.834v15.612c0 1.124.38 2.066 1.139 2.824.764.764 1.708 1.145 2.833 1.145h7.489c1.125 0 2.066-.378 2.824-1.136.764-.764 1.145-1.709 1.145-2.833v-15.612c0-1.125-.378-2.067-1.136-2.825-.764-.764-1.708-1.145-2.833-1.145zm.54 4.42h6.408v14.617h-6.407z"></path>
    </symbol>
    <symbol viewBox="0 96 48 48" id="vjs-icon-forward-30">
      <path d="M25.549 97l-2.437 2.434 4.634 4.635H26.38c-2.97 0-5.753.555-8.347 1.664-2.594 1.109-4.861 2.633-6.802 4.574-1.94 1.94-3.465 4.207-4.574 6.802-1.109 2.594-1.664 5.377-1.664 8.347h3.565c0-4.967 1.683-9.178 5.05-12.636 3.366-3.458 7.525-5.187 12.475-5.187h1.307l-4.335 4.338 2.495 2.494 8.732-8.732zm-11.553 20.53v4.689h10.297v5.249h-6.978v4.688h6.978v5.156H13.996V142h10.808c1.06 0 1.948-.395 2.666-1.186.718-.79 1.077-1.771 1.077-2.94v-16.217c0-1.169-.36-2.15-1.077-2.94-.718-.79-1.605-1.186-2.666-1.186zm21.174.168c-1.149 0-2.11.389-2.884 1.163-.78.78-1.172 1.745-1.172 2.894v15.942c0 1.15.388 2.11 1.162 2.885.78.78 1.745 1.17 2.894 1.17h7.649c1.149 0 2.11-.386 2.885-1.16.78-.78 1.17-1.746 1.17-2.895v-15.942c0-1.15-.387-2.11-1.161-2.885-.78-.78-1.745-1.172-2.894-1.172zm.552 4.516h6.542v14.931h-6.542z"></path>
    </symbol>
    <symbol viewBox="0 0 24 24" id="vjs-icon-audio-description">
      <path fill-rule="evenodd" d="M1 0a1 1 0 0 0-1 1v16a1 1 0 0 0 1 1h22a1 1 0 0 0 1-1V1a1 1 0 0 0-1-1H1Zm21 2H2v14h20V2Z" clip-rule="evenodd"/>
      <path d="M5.28 12.59a.91.91 0 0 1-.516-.14.622.622 0 0 1-.258-.396c-.033-.172-.003-.364.09-.576l2.47-5.317c.119-.258.264-.446.436-.565.179-.12.38-.179.605-.179.225 0 .42.06.586.179.171.119.32.307.446.565l2.47 5.317c.106.212.142.404.11.576a.557.557 0 0 1-.249.396.844.844 0 0 1-.496.14c-.264 0-.47-.06-.615-.18-.139-.118-.264-.31-.377-.575l-.536-1.26.695.506H6.054l.704-.505-.536 1.26c-.119.264-.241.456-.367.575-.125.119-.317.178-.575.178ZM8.087 7.41l-1.15 2.748-.278-.476h2.887l-.278.476-1.16-2.748h-.02ZM13.47 12.5c-.31 0-.548-.08-.713-.238-.159-.165-.238-.4-.238-.704v-5.11c0-.303.079-.535.238-.694.165-.165.403-.248.714-.248h1.944c1.217 0 2.156.305 2.818.913.668.608 1.002 1.468 1.002 2.58 0 .555-.087 1.05-.258 1.487-.172.43-.42.797-.744 1.101a3.279 3.279 0 0 1-1.2.685c-.47.152-1.01.228-1.618.228h-1.944Zm.874-1.478h.952c.35 0 .652-.043.903-.129.258-.086.47-.212.635-.377.172-.165.297-.374.377-.625.086-.251.129-.549.129-.893 0-.688-.169-1.193-.506-1.518-.337-.33-.85-.496-1.538-.496h-.952v4.038Z"/>
    </symbol>
    <symbol viewBox="0 0 48 48" id="vjs-icon-next-item">
      <path d="M12 36l17-12-17-12v24zm20-24v24h4V12h-4z"></path>
    </symbol>
    <symbol viewBox="0 0 48 48" id="vjs-icon-previous-item">
      <path d="M12 12h4v24h-4zm7 12l17 12V12z"></path>
    </symbol>
    <symbol viewBox="0 0 48 48" id="vjs-icon-shuffle">
      <path d="M21.17 18.34L10.83 8 8 10.83l10.34 10.34 2.83-2.83zM29 8l4.09 4.09L8 37.17 10.83 40l25.09-25.09L40 19V8H29zm.66 18.83l-2.83 2.83 6.26 6.26L29 40h11V29l-4.09 4.09-6.25-6.26z"></path>
    </symbol>
    <symbol viewBox="0 0 48 48" id="vjs-icon-cast">
      <path d="M42 6H6c-2.21 0-4 1.79-4 4v6h4v-6h36v28H28v4h14c2.21 0 4-1.79 4-4V10c0-2.21-1.79-4-4-4zM2 36v6h6c0-3.31-2.69-6-6-6zm0-8v4c5.52 0 10 4.48 10 10h4c0-7.73-6.27-14-14-14zm0-8v4c9.94 0 18 8.06 18 18h4c0-12.15-9.85-22-22-22z"></path>
    </symbol>
    <symbol viewBox="0 0 24 24" id="vjs-icon-picture-in-picture-enter">
      <path fill-rule="evenodd" d="M0 1a1 1 0 0 1 1-1h22a1 1 0 0 1 1 1v16a1 1 0 0 1-1 1H1a1 1 0 0 1-1-1V1Zm2 1h20v14H2V2Zm18 6h-8v6h8V8Z" clip-rule="evenodd"/>
    </symbol>
    <symbol viewBox="0 0 24 24" id="vjs-icon-picture-in-picture-exit">
      <path fill-rule="evenodd" d="M0 1a1 1 0 0 1 1-1h22a1 1 0 0 1 1 1v16a1 1 0 0 1-1 1H1a1 1 0 0 1-1-1V1Zm2 1h20v14H2V2Zm18 2H4v10h16V4Z" clip-rule="evenodd"/>
    </symbol>
    <symbol viewBox="0 0 1792 1792" id="vjs-icon-facebook">
      <path d="M1343 12v264h-157q-86 0-116 36t-30 108v189h293l-39 296h-254v759H734V905H479V609h255V391q0-186 104-288.5T1115 0q147 0 228 12z"></path>
    </symbol>
    <symbol viewBox="0 0 1792 1792" id="vjs-icon-linkedin">
      <path d="M477 625v991H147V625h330zm21-306q1 73-50.5 122T312 490h-2q-82 0-132-49t-50-122q0-74 51.5-122.5T314 148t133 48.5T498 319zm1166 729v568h-329v-530q0-105-40.5-164.5T1168 862q-63 0-105.5 34.5T999 982q-11 30-11 81v553H659q2-399 2-647t-1-296l-1-48h329v144h-2q20-32 41-56t56.5-52 87-43.5T1285 602q171 0 275 113.5t104 332.5z"></path>
    </symbol>
    <symbol viewBox="0 0 1200 1227" id="vjs-icon-twitter">
      <path d="M714.163 519.284L1160.89 0H1055.03L667.137 450.887L357.328 0H0L468.492 681.821L0 1226.37H105.866L515.491 750.218L842.672 1226.37H1200L714.137 519.284H714.163ZM569.165 687.828L521.697 619.934L144.011 79.6944H306.615L611.412 515.685L658.88 583.579L1055.08 1150.3H892.476L569.165 687.854V687.828Z"/>
    </symbol>
    <symbol viewBox="0 0 1792 1792" id="vjs-icon-tumblr">
      <path d="M1328 1329l80 237q-23 35-111 66t-177 32q-104 2-190.5-26T787 1564t-95-106-55.5-120-16.5-118V676H452V461q72-26 129-69.5t91-90 58-102 34-99T779 12q1-5 4.5-8.5T791 0h244v424h333v252h-334v518q0 30 6.5 56t22.5 52.5 49.5 41.5 81.5 14q78-2 134-29z"></path>
    </symbol>
    <symbol viewBox="0 0 1792 1792" id="vjs-icon-pinterest">
      <path d="M1664 896q0 209-103 385.5T1281.5 1561 896 1664q-111 0-218-32 59-93 78-164 9-34 54-211 20 39 73 67.5t114 28.5q121 0 216-68.5t147-188.5 52-270q0-114-59.5-214T1180 449t-255-63q-105 0-196 29t-154.5 77-109 110.5-67 129.5T377 866q0 104 40 183t117 111q30 12 38-20 2-7 8-31t8-30q6-23-11-43-51-61-51-151 0-151 104.5-259.5T904 517q151 0 235.5 82t84.5 213q0 170-68.5 289T980 1220q-61 0-98-43.5T859 1072q8-35 26.5-93.5t30-103T927 800q0-50-27-83t-77-33q-62 0-105 57t-43 142q0 73 25 122l-99 418q-17 70-13 177-206-91-333-281T128 896q0-209 103-385.5T510.5 231 896 128t385.5 103T1561 510.5 1664 896z"></path>
    </symbol>
  </defs>
</svg>
