<svg xmlns="http://www.w3.org/2000/svg" fill="none" viewBox="0 0 24 18">
  <path fill="#fff" fill-rule="evenodd" d="M1 0a1 1 0 0 0-1 1v16a1 1 0 0 0 1 1h22a1 1 0 0 0 1-1V1a1 1 0 0 0-1-1H1Zm21 2H2v14h20V2Z" clip-rule="evenodd"/>
  <path fill="#fff" d="M5.28 12.59a.91.91 0 0 1-.516-.14.622.622 0 0 1-.258-.396c-.033-.172-.003-.364.09-.576l2.47-5.317c.119-.258.264-.446.436-.565.179-.12.38-.179.605-.179.225 0 .42.06.586.179.171.119.32.307.446.565l2.47 5.317c.106.212.142.404.11.576a.557.557 0 0 1-.249.396.844.844 0 0 1-.496.14c-.264 0-.47-.06-.615-.18-.139-.118-.264-.31-.377-.575l-.536-1.26.695.506H6.054l.704-.505-.536 1.26c-.119.264-.241.456-.367.575-.125.119-.317.178-.575.178ZM8.087 7.41l-1.15 2.748-.278-.476h2.887l-.278.476-1.16-2.748h-.02ZM13.47 12.5c-.31 0-.548-.08-.713-.238-.159-.165-.238-.4-.238-.704v-5.11c0-.303.079-.535.238-.694.165-.165.403-.248.714-.248h1.944c1.217 0 2.156.305 2.818.913.668.608 1.002 1.468 1.002 2.58 0 .555-.087 1.05-.258 1.487-.172.43-.42.797-.744 1.101a3.279 3.279 0 0 1-1.2.685c-.47.152-1.01.228-1.618.228h-1.944Zm.874-1.478h.952c.35 0 .652-.043.903-.129.258-.086.47-.212.635-.377.172-.165.297-.374.377-.625.086-.251.129-.549.129-.893 0-.688-.169-1.193-.506-1.518-.337-.33-.85-.496-1.538-.496h-.952v4.038Z"/>
</svg>
