<svg xmlns="http://www.w3.org/2000/svg" fill="none" viewBox="0 0 24 18">
  <path fill="#fff" fill-rule="evenodd" d="M1 0a1 1 0 0 0-1 1v16a1 1 0 0 0 1 1h22a1 1 0 0 0 1-1V1a1 1 0 0 0-1-1H1Zm21 2H2v14h20V2Z" clip-rule="evenodd"/>
  <path fill="#fff" fill-rule="evenodd" d="M8 7a2 2 0 1 0 1.417 3.412 1 1 0 0 1 1.417 1.411 4 4 0 1 1 0-5.646 1 1 0 1 1-1.417 1.411A1.99 1.99 0 0 0 8 7ZM16.5 7a2 2 0 1 0 1.417 3.412 1 1 0 0 1 1.417 1.411 4 4 0 1 1 0-5.646 1 1 0 1 1-1.417 1.411A1.99 1.99 0 0 0 16.5 7Z" clip-rule="evenodd"/>
</svg>
