<svg xmlns="http://www.w3.org/2000/svg" fill="none" viewBox="0 0 24 18">
  <path fill="#fff" fill-rule="evenodd" d="M1 0a1 1 0 0 0-1 1v16a1 1 0 0 0 1 1h22a1 1 0 0 0 1-1V1a1 1 0 0 0-1-1H1Zm21 2H2v14h20V2Z" clip-rule="evenodd"/>
  <path fill="#fff" d="M9.453 12.61c-.774 0-1.438-.15-1.994-.447a3.092 3.092 0 0 1-1.28-1.26c-.29-.542-.436-1.177-.436-1.905A4.2 4.2 0 0 1 5.99 7.52c.172-.443.417-.823.734-1.14a3.21 3.21 0 0 1 1.17-.725 4.447 4.447 0 0 1 1.558-.258c.304 0 .618.037.942.11.331.066.622.168.873.307.185.1.314.225.387.377a.765.765 0 0 1 .07.466.893.893 0 0 1-.169.427.697.697 0 0 1-.357.258c-.146.04-.304.016-.476-.07a3.04 3.04 0 0 0-.596-.208 2.265 2.265 0 0 0-.605-.08c-.41 0-.754.08-1.031.239a1.455 1.455 0 0 0-.615.674c-.14.298-.209.665-.209 1.101 0 .437.07.807.209 1.111.139.298.344.526.615.685.277.152.621.228 1.031.228.172 0 .358-.02.556-.06.198-.046.393-.115.585-.208.199-.086.374-.109.526-.07.159.04.284.12.377.239.1.119.162.258.188.416a.742.742 0 0 1-.069.457.766.766 0 0 1-.357.367c-.232.139-.52.248-.863.327-.338.08-.675.12-1.012.12ZM16.05 12.61c-.774 0-1.438-.15-1.994-.447a3.092 3.092 0 0 1-1.28-1.26c-.29-.542-.436-1.177-.436-1.905 0-.542.083-1.035.248-1.478.172-.443.417-.823.734-1.14a3.21 3.21 0 0 1 1.17-.725 4.447 4.447 0 0 1 1.558-.258c.304 0 .619.037.943.11.33.066.621.168.873.307.185.1.314.225.386.377a.766.766 0 0 1 .07.466.893.893 0 0 1-.169.427.697.697 0 0 1-.357.258c-.145.04-.304.016-.476-.07a3.04 3.04 0 0 0-.595-.208 2.266 2.266 0 0 0-.605-.08c-.41 0-.754.08-1.032.239a1.456 1.456 0 0 0-.615.674c-.139.298-.208.665-.208 1.101 0 .437.069.807.208 1.111.139.298.344.526.615.685.278.152.622.228 1.032.228.171 0 .357-.02.555-.06.198-.046.394-.115.585-.208.199-.086.374-.109.526-.07.159.04.284.12.377.239.1.119.162.258.189.416a.742.742 0 0 1-.07.457.766.766 0 0 1-.357.367c-.231.139-.52.248-.863.327-.337.08-.675.12-1.012.12Z"/>
</svg>
