<svg xmlns="http://www.w3.org/2000/svg" fill="none" viewBox="0 0 24 18">
  <path fill="#fff" fill-rule="evenodd" d="M1 0a1 1 0 0 0-1 1v16a1 1 0 0 0 1 1h22a1 1 0 0 0 1-1V1a1 1 0 0 0-1-1H1Zm21 2H2v14h20V2Z" clip-rule="evenodd"/>
  <path fill="#fff" d="M5.767 12.59c-.251 0-.443-.07-.576-.209-.132-.139-.198-.334-.198-.585V6.21c0-.252.066-.447.198-.586.133-.138.325-.208.576-.208.245 0 .433.07.565.208.133.14.199.334.199.586v2.103h3.253V6.21c0-.252.067-.447.199-.586.132-.138.32-.208.565-.208.252 0 .443.07.576.208.132.14.198.334.198.586v5.585c0 .251-.066.446-.198.585-.133.139-.324.208-.576.208-.244 0-.433-.07-.565-.208-.132-.139-.199-.334-.199-.585V9.593H6.531v2.203c0 .251-.066.446-.199.585-.125.139-.314.208-.565.208ZM13.537 12.5c-.258 0-.456-.07-.595-.208-.14-.14-.209-.338-.209-.595V6.31c0-.258.07-.456.209-.595.139-.14.337-.209.595-.209h1.934c1.197 0 2.12.305 2.768.913.655.602.982 1.462.982 2.58 0 .561-.086 1.06-.258 1.497-.165.43-.407.794-.724 1.091a3.203 3.203 0 0 1-1.17.685c-.463.152-.996.228-1.598.228h-1.934Zm.734-1.26h1.111c.377 0 .704-.046.982-.139.278-.092.51-.231.694-.416.186-.186.325-.417.417-.695.093-.284.139-.615.139-.992 0-.754-.189-1.312-.565-1.676-.37-.37-.926-.556-1.667-.556h-1.111v4.474Z"/>
</svg>
