<svg xmlns="http://www.w3.org/2000/svg" fill="none" viewBox="0 0 18 18">
  <path fill="#fff" d="M6.66 7.65 10.948.22A8.947 8.947 0 0 0 9 0C6.84 0 4.864.76 3.312 2.03l3.299 5.71.049-.09ZM17.586 6.3A9.016 9.016 0 0 0 12.191.594L8.896 6.3h8.69Zm.234.9h-6.741l.261.45 4.289 7.425A8.967 8.967 0 0 0 18 9c0-.617-.063-1.22-.18-1.8ZM5.881 9l-3.51-6.075A8.967 8.967 0 0 0 0 9c0 .617.063 1.22.18 1.8h6.741L5.881 9ZM.414 11.7a9.016 9.016 0 0 0 5.396 5.706L9.104 11.7H.414Zm10.143 0-3.51 6.08a8.948 8.948 0 0 0 7.641-1.809L11.39 10.26l-.833 1.44Z"/>
</svg>
